<?xml version="1.0" encoding="UTF-8" standalone="no"?>
<!-- Created with Inkscape (http://www.inkscape.org/) -->

<svg
   width="512"
   height="512"
   viewBox="0 0 135.46666 135.46667"
   version="1.1"
   id="svg29312"
   xml:space="preserve"
   xmlns="http://www.w3.org/2000/svg"
   xmlns:svg="http://www.w3.org/2000/svg"><defs
     id="defs29309" /><g
     id="layer1"><path
       id="rect1"
       style="display:inline;fill:#ffffff;fill-opacity:1;stroke-width:19.8438;paint-order:stroke fill markers"
       d="m 33.866666,0 v 25.4 h 8.466667 v 42.333332 h -8.466667 v 16.933334 h 8.466667 16.933333 V 25.4 H 76.199999 V 84.666666 H 93.133332 101.6 V 67.733332 H 93.133332 V 25.4 H 101.6 V 0 Z M 101.6,84.666666 V 101.6 h 16.93333 V 84.666666 Z M 118.53333,101.6 v 16.93333 H 16.933333 V 101.6 H 0 v 16.93333 16.93333 H 135.46666 V 118.53333 101.6 Z m -101.599997,0 H 33.866666 V 84.666666 H 16.933333 Z m 25.4,-8.466668 v 16.933338 h 8.466666 V 101.6 h 8.466667 v -8.466668 h -8.466667 z" /><path
       id="rect11"
       style="display:inline;fill:#5c0700;fill-opacity:1;stroke-width:19.8438;paint-order:stroke fill markers"
       d="m 59.266666,59.266666 v 16.933333 h 8.466666 v -8.466667 h 8.466667 v -8.466666 h -8.466667 z" /><path
       id="rect13"
       style="display:inline;fill:#aa0f01;fill-opacity:1;stroke-width:19.8438;paint-order:stroke fill markers"
       d="m 67.733332,67.733332 v 8.466667 h -8.466666 v 8.466667 h 8.466666 V 101.6 h 8.466667 V 67.733332 Z" /><path
       id="rect15"
       style="fill:#410500;fill-opacity:1;stroke-width:19.8438;paint-order:stroke fill markers"
       d="m 110.06667,101.6 v 8.46667 H 101.6 v 8.46666 h 8.46667 8.46666 V 101.6 Z" /><path
       id="rect16"
       style="fill:#ff0000;fill-opacity:1;stroke-width:19.8438;paint-order:stroke fill markers"
       d="m 59.266666,84.666656 h 8.466667 v 8.466667 h -8.466667 z" /><path
       id="rect17"
       style="fill:#720000;fill-opacity:1;stroke-width:19.8438;paint-order:stroke fill markers"
       d="m 76.199997,84.666656 h 8.466666 v 8.466667 h -8.466666 z" /><path
       id="rect18"
       style="fill:#410500;fill-opacity:1;stroke-width:19.8439;paint-order:stroke fill markers"
       d="M 84.666664,84.666664 H 93.13333 V 93.13333 H 84.666664 Z" /><path
       id="rect19"
       style="fill:#ff0000;fill-opacity:1;stroke-width:19.8437;paint-order:stroke fill markers"
       d="M 93.133331,84.666664 H 101.6 v 8.466666 h -8.466669 z" /><path
       id="rect20"
       style="fill:#aa0f01;fill-opacity:1;stroke-width:19.8438;paint-order:stroke fill markers"
       d="m 101.6,101.59999 h 8.46666 v 8.46667 H 101.6 Z" /><path
       id="rect21"
       style="fill:#410500;fill-opacity:1;stroke-width:19.8438;paint-order:stroke fill markers"
       d="M 93.133331,101.59999 H 101.6 v 8.46667 h -8.466669 z" /><path
       id="rect22"
       style="fill:#720000;fill-opacity:1;stroke-width:19.8439;paint-order:stroke fill markers"
       d="M 93.133331,93.133331 H 101.6 V 101.6 h -8.466669 z" /><path
       id="rect23"
       style="fill:#aa0f01;fill-opacity:1;stroke-width:19.8437;paint-order:stroke fill markers"
       d="M 84.666664,93.133331 H 93.13333 V 101.6 h -8.466666 z" /><path
       id="rect24"
       style="fill:#ff0000;fill-opacity:1;stroke-width:19.8439;paint-order:stroke fill markers"
       d="m 76.199997,93.133331 h 8.466666 V 101.6 h -8.466666 z" /><path
       id="rect25"
       style="fill:#5c0700;fill-opacity:1;stroke-width:19.8438;paint-order:stroke fill markers"
       d="M 93.133331,110.06667 H 101.6 v 8.46667 h -8.466669 z" /><path
       id="rect26"
       style="fill:#410500;fill-opacity:1;stroke-width:19.8438;paint-order:stroke fill markers"
       d="m 84.666664,110.06667 h 8.466666 v 8.46667 h -8.466666 z" /><path
       id="rect27"
       style="fill:#720000;fill-opacity:1;stroke-width:19.8438;paint-order:stroke fill markers"
       d="m 84.666664,101.6 h 8.466666 v 8.46666 h -8.466666 z" /><path
       id="rect28"
       style="fill:#aa0f01;fill-opacity:1;stroke-width:19.8438;paint-order:stroke fill markers"
       d="m 76.199997,101.6 h 8.466666 v 8.46666 h -8.466666 z" /><path
       id="rect29"
       style="fill:#ff0000;fill-opacity:1;stroke-width:19.8438;paint-order:stroke fill markers"
       d="m 67.73333,101.6 h 8.466666 v 8.46666 H 67.73333 Z" /><path
       id="rect30"
       style="fill:#720000;fill-opacity:1;stroke-width:19.8438;paint-order:stroke fill markers"
       d="m 76.199997,110.06667 h 8.466666 v 8.46667 h -8.466666 z" /><path
       id="rect31"
       style="fill:#aa0f01;fill-opacity:1;stroke-width:19.8439;paint-order:stroke fill markers"
       d="m 67.73333,110.06667 h 8.466666 v 8.46667 H 67.73333 Z" /><path
       id="rect32"
       style="fill:#aa0f01;fill-opacity:1;stroke-width:19.8439;paint-order:stroke fill markers"
       d="m 59.266666,101.59999 h 8.466667 v 8.46667 h -8.466667 z" /><path
       id="rect33"
       style="fill:#720000;fill-opacity:1;stroke-width:19.8437;paint-order:stroke fill markers"
       d="m 59.266663,93.133331 h 8.466666 V 101.6 h -8.466666 z" /><path
       id="rect34"
       style="fill:#720000;fill-opacity:1;stroke-width:19.8437;paint-order:stroke fill markers"
       d="m 50.799999,84.666664 h 8.466666 v 8.466666 h -8.466666 z" /><path
       id="rect35"
       style="fill:#5c0700;fill-opacity:1;stroke-width:19.8438;paint-order:stroke fill markers"
       d="m 42.333332,84.666664 h 8.466666 v 8.466666 h -8.466666 z" /><path
       id="rect36"
       style="fill:#aa0f01;fill-opacity:1;stroke-width:19.8439;paint-order:stroke fill markers"
       d="m 33.866665,84.666664 h 8.466666 v 8.466666 h -8.466666 z" /><path
       id="rect37"
       style="fill:#720000;fill-opacity:1;stroke-width:19.8439;paint-order:stroke fill markers"
       d="m 33.866665,93.133331 h 8.466666 V 101.6 h -8.466666 z" /><path
       id="rect38"
       style="fill:#720000;fill-opacity:1;stroke-width:19.8438;paint-order:stroke fill markers"
       d="m 16.933332,101.6 h 8.466667 v 8.46666 h -8.466667 z" /><path
       id="rect39"
       style="fill:#aa0f01;fill-opacity:1;stroke-width:19.8438;paint-order:stroke fill markers"
       d="m 16.933332,110.06667 h 8.466667 v 8.46667 h -8.466667 z" /><path
       id="rect40"
       style="fill:#aa0f01;fill-opacity:1;stroke-width:19.8438;paint-order:stroke fill markers"
       d="m 25.399998,101.59999 h 8.466666 v 8.46667 h -8.466666 z" /><path
       id="rect41"
       style="fill:#ff0000;fill-opacity:1;stroke-width:19.8439;paint-order:stroke fill markers"
       d="m 25.399998,110.06667 h 8.466666 v 8.46667 h -8.466666 z" /><path
       id="rect42"
       style="fill:#ff0000;fill-opacity:1;stroke-width:19.8438;paint-order:stroke fill markers"
       d="m 33.866665,101.6 h 8.466666 v 8.46666 h -8.466666 z" /><path
       id="rect43"
       style="fill:#aa0f01;fill-opacity:1;stroke-width:19.8439;paint-order:stroke fill markers"
       d="m 33.866665,110.06667 h 8.466666 v 8.46667 h -8.466666 z" /><path
       id="rect44"
       style="fill:#720000;fill-opacity:1;stroke-width:19.8438;paint-order:stroke fill markers"
       d="m 42.333332,110.06667 h 8.466666 v 8.46667 h -8.466666 z" /><path
       id="rect45"
       style="fill:#410500;fill-opacity:1;stroke-width:19.8439;paint-order:stroke fill markers"
       d="m 50.799999,101.59999 h 8.466666 v 8.46667 h -8.466666 z" /><path
       id="rect46"
       style="fill:#2d0000;fill-opacity:1;stroke-width:19.8437;paint-order:stroke fill markers"
       d="m 50.799995,110.06667 h 8.466667 v 8.46667 h -8.466667 z" /><path
       id="rect47"
       style="fill:#410500;fill-opacity:1;stroke-width:19.8438;paint-order:stroke fill markers"
       d="m 59.266666,110.06667 h 8.466667 v 8.46666 h -8.466667 z" /></g></svg>
